<?xml version="1.0" encoding="UTF-8" standalone="no"?>
<svg
   viewBox="0 0 1440 320"
   version="1.1"
   id="svg1938"
   sodipodi:docname="wave (4).svg"
   inkscape:version="1.2.1 (9c6d41e410, 2022-07-14)"
   xmlns:inkscape="http://www.inkscape.org/namespaces/inkscape"
   xmlns:sodipodi="http://sodipodi.sourceforge.net/DTD/sodipodi-0.dtd"
   xmlns="http://www.w3.org/2000/svg"
   xmlns:svg="http://www.w3.org/2000/svg">
  <defs
     id="defs1942" />
  <sodipodi:namedview
     id="namedview1940"
     pagecolor="#ffffff"
     bordercolor="#000000"
     borderopacity="0.25"
     inkscape:showpageshadow="2"
     inkscape:pageopacity="0.0"
     inkscape:pagecheckerboard="0"
     inkscape:deskcolor="#d1d1d1"
     showgrid="false"
     inkscape:zoom="0.86041667"
     inkscape:cx="266.73123"
     inkscape:cy="163.87409"
     inkscape:window-width="1600"
     inkscape:window-height="837"
     inkscape:window-x="-8"
     inkscape:window-y="-8"
     inkscape:window-maximized="1"
     inkscape:current-layer="svg1938" />
  <rect
     style="fill:#ff5500;stroke-width:33.7152;stroke-linecap:square"
     id="rect2061"
     width="1440"
     height="320"
     x="-5.6843419e-14"
     y="7.1054274e-15" />
  <path
     fill="white"
     fill-opacity="1"
     d="M0,224L48,218.7C96,213,192,203,288,170.7C384,139,480,85,576,74.7C672,64,768,96,864,101.3C960,107,1056,85,1152,80C1248,75,1344,85,1392,90.7L1440,96L1440,320L1392,320C1344,320,1248,320,1152,320C1056,320,960,320,864,320C768,320,672,320,576,320C480,320,384,320,288,320C192,320,96,320,48,320L0,320Z"
     id="path1936" />
</svg>
